<mxfile host="65bd71144e">
    <diagram id="O55dX1jfF7kwNQoXV2Z_" name="Page-1">
        <mxGraphModel dx="617" dy="665" grid="1" gridSize="5" guides="1" tooltips="1" connect="1" arrows="1" fold="1" page="1" pageScale="1" pageWidth="850" pageHeight="1100" math="0" shadow="0">
            <root>
                <mxCell id="0"/>
                <mxCell id="1" parent="0"/>
                <mxCell id="2" value="" style="rounded=0;whiteSpace=wrap;html=1;sketch=1;curveFitting=1;jiggle=2;fillColor=none;" parent="1" vertex="1">
                    <mxGeometry x="20" y="120" width="580" height="320" as="geometry"/>
                </mxCell>
                <mxCell id="3" value="Spark Core API" style="rounded=0;whiteSpace=wrap;html=1;sketch=1;fillColor=none;fontFamily=Comic Sans MS;fontSize=12;fontStyle=1;fontColor=#ffffff;strokeColor=#2D7600;strokeWidth=2;" parent="1" vertex="1">
                    <mxGeometry x="220" y="360" width="360" height="60" as="geometry"/>
                </mxCell>
                <mxCell id="4" value="Data Source Connectors" style="rounded=0;whiteSpace=wrap;html=1;sketch=1;fillColor=none;fontFamily=Comic Sans MS;fontSize=15;fontStyle=1;fontColor=#3333FF;strokeColor=#3700CC;strokeWidth=2;" parent="1" vertex="1">
                    <mxGeometry x="40" y="360" width="155" height="60" as="geometry"/>
                </mxCell>
            </root>
        </mxGraphModel>
    </diagram>
</mxfile>